<svg width="1894" height="1458" viewBox="0 0 1894 1458" fill="none" xmlns="http://www.w3.org/2000/svg">
<path fill-rule="evenodd" clip-rule="evenodd" d="M344.244 1456.56C451.431 1470.17 656.313 1384.64 495 1253C333.687 1121.36 273.276 650.096 62.6802 1061.12C-147.916 1472.15 237.057 1442.95 344.244 1456.56Z" fill="url(#paint0_linear)"/>
<path fill-rule="evenodd" clip-rule="evenodd" d="M1105.27 312.421C1208.11 731.686 554.83 267.322 637.915 811.072C691.97 1164.83 1609.5 1040.26 2075.73 650C2326.11 440.41 2171.32 -27.4853 2075.73 -90.3328C2011.45 -132.589 1628.55 -198.156 1374 -123C1160.49 -59.9612 1058.36 121.17 1105.27 312.421Z" fill="url(#paint1_linear)"/>
<defs>
<linearGradient id="paint0_linear" x1="-56.2026" y1="1202.04" x2="271.498" y2="1541.95" gradientUnits="userSpaceOnUse">
<stop stop-color="#F15F6D"/>
<stop offset="1" stop-color="#B267B9"/>
</linearGradient>
<linearGradient id="paint1_linear" x1="558.072" y1="367.591" x2="1008.72" y2="1086.54" gradientUnits="userSpaceOnUse">
<stop stop-color="#F15F6D"/>
<stop offset="1" stop-color="#B267B9"/>
</linearGradient>
</defs>
</svg>
