<svg width="295" height="194" viewBox="0 0 295 194" fill="none" xmlns="http://www.w3.org/2000/svg">
<path d="M57.32 84C55.56 81.04 53.52 77.72 51.2 74.04C48.96 70.36 46.52 66.56 43.88 62.64C41.24 58.64 38.48 54.6 35.6 50.52C32.8 46.44 30 42.52 27.2 38.76C24.4 34.92 21.68 31.32 19.04 27.96C16.4 24.6 13.96 21.64 11.72 19.08V84H0.32V0.839998H9.56C13.32 4.84 17.32 9.52 21.56 14.88C25.88 20.16 30.12 25.64 34.28 31.32C38.52 36.92 42.48 42.44 46.16 47.88C49.92 53.32 53.08 58.16 55.64 62.4V0.839998H67.04V84H57.32ZM87.6247 84V0.839998H137.785V10.8H99.2647V35.88H133.465V45.72H99.2647V84H87.6247ZM209.278 0.839998V10.92H183.118V84H171.478V10.92H145.318V0.839998H209.278ZM229.979 75.96C234.539 75.96 237.899 75.36 240.059 74.16C242.299 72.96 243.419 71.04 243.419 68.4C243.419 65.68 242.339 63.52 240.179 61.92C238.019 60.32 234.459 58.52 229.499 56.52C227.099 55.56 224.779 54.6 222.539 53.64C220.379 52.6 218.499 51.4 216.899 50.04C215.299 48.68 214.019 47.04 213.059 45.12C212.099 43.2 211.619 40.84 211.619 38.04C211.619 32.52 213.659 28.16 217.739 24.96C221.819 21.68 227.379 20.04 234.419 20.04C236.179 20.04 237.939 20.16 239.699 20.4C241.459 20.56 243.099 20.8 244.619 21.12C246.139 21.36 247.459 21.64 248.579 21.96C249.779 22.28 250.699 22.56 251.339 22.8L249.299 32.4C248.099 31.76 246.219 31.12 243.659 30.48C241.099 29.76 238.019 29.4 234.419 29.4C231.299 29.4 228.579 30.04 226.259 31.32C223.939 32.52 222.779 34.44 222.779 37.08C222.779 38.44 223.019 39.64 223.499 40.68C224.059 41.72 224.859 42.68 225.899 43.56C227.019 44.36 228.379 45.12 229.979 45.84C231.579 46.56 233.499 47.32 235.739 48.12C238.699 49.24 241.339 50.36 243.659 51.48C245.979 52.52 247.939 53.76 249.539 55.2C251.219 56.64 252.499 58.4 253.379 60.48C254.259 62.48 254.699 64.96 254.699 67.92C254.699 73.68 252.539 78.04 248.219 81C243.979 83.96 237.899 85.44 229.979 85.44C224.459 85.44 220.139 84.96 217.019 84C213.899 83.12 211.779 82.44 210.659 81.96L212.699 72.36C213.979 72.84 216.019 73.56 218.819 74.52C221.619 75.48 225.339 75.96 229.979 75.96ZM282.214 77.52C282.214 79.68 281.494 81.56 280.054 83.16C278.614 84.76 276.654 85.56 274.174 85.56C271.694 85.56 269.734 84.76 268.294 83.16C266.854 81.56 266.134 79.68 266.134 77.52C266.134 75.36 266.854 73.48 268.294 71.88C269.734 70.28 271.694 69.48 274.174 69.48C276.654 69.48 278.614 70.28 280.054 71.88C281.494 73.48 282.214 75.36 282.214 77.52ZM124.32 159.2C125.6 160.8 127.2 162.92 129.12 165.56C131.12 168.12 133.16 171 135.24 174.2C137.32 177.32 139.36 180.6 141.36 184.04C143.44 187.48 145.2 190.8 146.64 194H133.92C132.32 190.96 130.56 187.88 128.64 184.76C126.8 181.64 124.92 178.68 123 175.88C121.08 173 119.16 170.32 117.24 167.84C115.4 165.36 113.72 163.2 112.2 161.36C111.16 161.44 110.08 161.48 108.96 161.48C107.92 161.48 106.84 161.48 105.72 161.48H95.2803V194H83.6403V112.04C86.9203 111.24 90.5603 110.72 94.5603 110.48C98.6403 110.16 102.36 110 105.72 110C117.4 110 126.28 112.2 132.36 116.6C138.52 121 141.6 127.56 141.6 136.28C141.6 141.8 140.12 146.52 137.16 150.44C134.28 154.36 130 157.28 124.32 159.2ZM106.68 120.2C101.72 120.2 97.9203 120.32 95.2803 120.56V151.88H103.56C107.56 151.88 111.16 151.68 114.36 151.28C117.56 150.88 120.24 150.12 122.4 149C124.64 147.88 126.36 146.32 127.56 144.32C128.76 142.24 129.36 139.52 129.36 136.16C129.36 133.04 128.76 130.44 127.56 128.36C126.36 126.28 124.72 124.64 122.64 123.44C120.64 122.24 118.24 121.4 115.44 120.92C112.72 120.44 109.8 120.2 106.68 120.2ZM159.109 194V110.84H209.869V120.8H170.749V145.52H205.549V155.24H170.749V184.04H212.869V194H159.109ZM284.664 194C282.904 191.04 280.864 187.72 278.544 184.04C276.304 180.36 273.864 176.56 271.224 172.64C268.584 168.64 265.824 164.6 262.944 160.52C260.144 156.44 257.344 152.52 254.544 148.76C251.744 144.92 249.024 141.32 246.384 137.96C243.744 134.6 241.304 131.64 239.064 129.08V194H227.664V110.84H236.904C240.664 114.84 244.664 119.52 248.904 124.88C253.224 130.16 257.464 135.64 261.624 141.32C265.864 146.92 269.824 152.44 273.504 157.88C277.264 163.32 280.424 168.16 282.984 172.4V110.84H294.384V194H284.664Z" fill="url(#paint0_linear)"/>
<defs>
<linearGradient id="paint0_linear" x1="-101.646" y1="20.5512" x2="-14.7191" y2="185.965" gradientUnits="userSpaceOnUse">
<stop stop-color="#F15F6D"/>
<stop offset="1" stop-color="#B267B9"/>
</linearGradient>
</defs>
</svg>
